<svg xmlns="http://www.w3.org/2000/svg" viewBox="0 0 48 48">
  <rect width="48" height="48" rx="9" fill="#060F1E"/>
  <circle cx="11" cy="9"  r="8"  fill="#3B82F6" opacity="0.18"/>
  <circle cx="37" cy="39" r="8"  fill="#60A5FA" opacity="0.18"/>
  <rect x="8" y="7" width="5" height="34" rx="2.5" fill="url(#vl)"/>
  <rect x="35" y="7" width="5" height="34" rx="2.5" fill="url(#vr)"/>
  <polygon points="13,7 18,7 40,41 35,41" fill="url(#diag)"/>
  <circle cx="10.5" cy="9"  r="3.5" fill="#93C5FD"/>
  <circle cx="10.5" cy="39" r="3.5" fill="#60A5FA"/>
  <circle cx="37.5" cy="9"  r="3.5" fill="#60A5FA"/>
  <circle cx="37.5" cy="39" r="3.5" fill="#93C5FD"/>
  <circle cx="24"   cy="24" r="2.5" fill="#BAE6FD"/>
  <line x1="24" y1="24" x2="30" y2="18" stroke="#3B82F6" stroke-width="1.2" stroke-linecap="round" opacity="0.7"/>
  <circle cx="30" cy="18" r="1.5" fill="#60A5FA" opacity="0.9"/>
  <line x1="24" y1="24" x2="18" y2="30" stroke="#3B82F6" stroke-width="1.2" stroke-linecap="round" opacity="0.7"/>
  <circle cx="18" cy="30" r="1.5" fill="#60A5FA" opacity="0.9"/>
  <circle cx="10.5" cy="9"  r="5.5" fill="#3B82F6" opacity="0.25"/>
  <circle cx="37.5" cy="39" r="5.5" fill="#60A5FA" opacity="0.25"/>
  <defs>
    <linearGradient id="vl" x1="0" y1="0" x2="0" y2="1">
      <stop offset="0%"   stop-color="#93C5FD"/>
      <stop offset="100%" stop-color="#3B82F6"/>
    </linearGradient>
    <linearGradient id="vr" x1="0" y1="0" x2="0" y2="1">
      <stop offset="0%"   stop-color="#3B82F6"/>
      <stop offset="100%" stop-color="#93C5FD"/>
    </linearGradient>
    <linearGradient id="diag" x1="0" y1="0" x2="1" y2="1">
      <stop offset="0%"   stop-color="#60A5FA"/>
      <stop offset="100%" stop-color="#2563EB"/>
    </linearGradient>
  </defs>
</svg>
